<?xml version="1.0" encoding="UTF-8"?>
<svg id="Layer_1" data-name="Layer 1" xmlns="http://www.w3.org/2000/svg" viewBox="0 0 1413.95 528.01">
  <defs>
    <style>
      .cls-1 {
        fill: #fff;
      }
    </style>
  </defs>
  <g>
    <path class="cls-1" d="M127.6,0c19.92-.29,50.69,8.5,68.27,21.09l-5.86,36.62c-.88,5.57-6.45,8.79-10.84,6.45-9.38-4.69-20.8-9.67-32.52-14.06l-16.7-6.45c-2.64-.88-5.27,0-7.32,2.64-2.05,2.93-.88,6.45,2.93,7.91l15.82,6.45c36.62,15.24,45.71,23.73,41.9,47.46-1.17,6.45-.88,57.13-78.52,57.13-31.64,0-55.37-8.79-72.07-21.97l5.57-35.74c.88-5.57,6.45-8.79,11.13-6.45,8.79,4.39,19.92,8.79,32.23,13.77l16.7,6.74c2.64,1.17,5.57,0,7.32-2.64,2.34-3.22,1.17-6.74-2.64-8.2l-15.82-6.45c-30.47-17.87-42.19-18.46-36.92-52.44C53.48,32.82,70.18.59,127.6,0Z"/>
    <path class="cls-1" d="M235.42,161.73c-39.26,0-46.29-20.22-39.85-61.53l10.55-66.8c2.93-17.29,17.58-29.88,34.87-29.88h50.69l-15.53,96.39h5.86c3.52,0,6.15-3.81,7.03-9.08l9.38-57.42c2.93-17.29,17.58-29.88,34.87-29.88h49.81l-15.53,96.39h5.86c4.1-1.46,6.15-3.81,7.03-9.08l9.08-57.42c2.93-17.29,17.58-29.88,34.87-29.88h50.39l-15.82,98.44c-5.27,34.57-20.51,59.77-55.08,59.77h-87.31l8.2-24.32c1.17-3.22,0-6.45-3.22-7.03-2.93-.29-5.86,1.76-7.03,4.98l-7.91,21.68c-1.17,2.93-3.81,4.69-6.45,4.69h-64.75Z"/>
    <path class="cls-1" d="M578.21,57.43c.88-5.27-.88-9.08-4.39-9.08h-5.86l-9.67,61.53c-.59,3.52,2.93,5.86,8.2,5.86,23.44-.29,45.41-1.47,67.39-8.5,4.39-1.46,8.2.88,7.91,5.27l-1.17,34.87c-.29,2.64-2.05,4.98-4.98,5.86-15.24,4.69-50.69,12.01-76.76,12.01-77.35,0-91.41-38.67-85.55-75.3C481.23,39.27,503.21,0,594.32,0c47.46,0,75.88,26.95,70.61,59.48-5.27,33.69-38.09,45.12-94.63,45.12l7.91-47.17Z"/>
    <path class="cls-1" d="M773.63,57.43c.88-5.27-.88-9.08-4.39-9.08h-5.86l-9.67,61.53c-.59,3.52,2.93,5.86,8.2,5.86,23.44-.29,45.41-1.47,67.39-8.5,4.39-1.46,8.2.88,7.91,5.27l-1.17,34.87c-.29,2.64-2.05,4.98-4.98,5.86-15.24,4.69-50.69,12.01-76.76,12.01-77.35,0-91.41-38.67-85.55-75.3C676.65,39.27,698.62,0,789.74,0c47.46,0,75.88,26.95,70.61,59.48-5.27,33.69-38.09,45.12-94.63,45.12l7.91-47.17Z"/>
    <path class="cls-1" d="M952.64,48.35l-26.08,168.47c-.59,3.22-3.52,5.86-6.74,5.86h-69.44c-4.1,0-6.74-3.22-6.15-7.32l32.52-204.5c.59-4.1,4.1-7.32,8.2-7.32h75.59c-9.08,6.45-14.06,14.65-17.58,24.9h10.55C959.09,13.78,973.44,0,997.47,0c47.46,0,56.55,23.15,48.93,70.32l-6.15,38.67c-5.86,36.92-46.58,65.34-94.05,53.32l16.7-104.89c.88-5.27-.88-9.08-4.39-9.08h-5.86Z"/>
    <path class="cls-1" d="M1158.61,57.43c.88-5.27-.88-9.08-4.39-9.08h-5.86l-9.67,61.53c-.59,3.52,2.93,5.86,8.2,5.86,23.44-.29,45.41-1.47,67.39-8.5,4.39-1.46,8.2.88,7.91,5.27l-1.17,34.87c-.29,2.64-2.05,4.98-4.98,5.86-15.24,4.69-50.69,12.01-76.76,12.01-77.35,0-91.41-38.67-85.55-75.3C1061.63,39.27,1083.6,0,1174.72,0c47.46,0,75.88,26.95,70.61,59.48-5.27,33.69-38.09,45.12-94.63,45.12l7.91-47.17Z"/>
    <path class="cls-1" d="M1327.36,28.13h10.55c3.81-8.79,16.41-24.61,27.83-24.61h15.53l-8.5,51.86c-.29,3.22-3.52,5.86-6.74,5.86h-24.02c-5.86,0-6.45,0-7.62,7.91l-13.48,84.97c-.59,4.39-4.39,7.62-8.5,7.62h-67.09c-4.39,0-7.03-3.22-6.45-7.32l22.85-143.56c.59-4.1,4.39-7.32,8.5-7.32h75c-9.38,6.15-14.36,14.65-17.87,24.61Z"/>
  </g>
  <path class="cls-1" d="M698.52,312.22l153.54-34.49c148.61-32.33,331.03-39.6,486.79,1.27,141.74,38.75,80.9,92.45-166.11,147.94l-435.26,97.78c-18.69,4.2-45.6,4.45-60.43.41L9.52,349.53c-14.83-4.04-12.37-10.39,7.66-14.89l331.12-74.39c18.69-4.2,45.6-4.45,60.43-.41l468.15,122.92,24.03-5.4c17.36-3.9,17.95-7.72,3.99-11.43l-206.39-53.72Z"/>
</svg>